<?xml version="1.0" standalone="no"?>
<!DOCTYPE svg PUBLIC "-//W3C//DTD SVG 20010904//EN"
 "http://www.w3.org/TR/2001/REC-SVG-20010904/DTD/svg10.dtd">
<svg version="1.0" xmlns="http://www.w3.org/2000/svg"
 width="1218.000000pt" height="581.000000pt" viewBox="0 0 1218.000000 581.000000"
 preserveAspectRatio="xMidYMid meet">

<g transform="translate(0.000000,581.000000) scale(0.100000,-0.100000)"
fill="#000000" stroke="none">
<path d="M2632 3811 c-60 -21 -94 -49 -116 -96 -14 -29 -16 -109 -16 -610 l0
-576 26 -44 c33 -57 105 -95 181 -95 34 0 55 5 58 12 2 7 6 220 7 473 l3 460
37 56 c39 60 94 104 149 119 19 6 163 10 322 10 375 0 367 3 367 -167 -1 -107
-11 -140 -65 -207 -16 -21 -41 -51 -54 -68 -25 -31 -83 -72 -136 -97 -20 -9
-85 -15 -202 -19 l-173 -5 0 -278 0 -278 358 -3 c453 -4 473 0 527 109 l26 53
-3 562 c-4 610 -1 582 -61 646 -58 61 -72 62 -656 61 -480 0 -531 -2 -579 -18z"/>
<path d="M5154 3531 c-36 -22 -59 -70 -50 -105 3 -14 17 -38 30 -53 21 -24 32
-28 76 -28 46 0 55 4 81 33 53 59 29 140 -49 162 -49 13 -52 13 -88 -9z"/>
<path d="M7198 3534 c-72 -39 -75 -138 -6 -179 62 -36 146 0 164 72 10 38 -20
91 -61 109 -43 18 -63 17 -97 -2z"/>
<path d="M8470 2991 l0 -519 81 -4 c47 -2 84 1 87 7 4 6 9 118 12 250 5 221 7
243 27 280 30 56 67 75 146 75 78 0 119 -24 154 -89 22 -43 23 -52 23 -282 l0
-237 83 -4 c45 -2 86 -1 90 3 5 4 7 130 5 280 -4 296 -6 309 -64 386 -51 68
-150 113 -248 113 -53 0 -122 -29 -170 -72 -26 -22 -46 -36 -47 -31 0 4 -2 87
-2 183 l-2 175 -87 3 -88 3 0 -520z"/>
<path d="M6589 3470 c-194 -35 -303 -204 -239 -372 36 -96 130 -160 315 -213
117 -33 165 -82 165 -167 0 -39 -5 -50 -30 -72 -87 -73 -225 -48 -276 49 -22
43 -14 41 -139 37 -52 -2 -55 -3 -55 -28 0 -43 48 -131 91 -165 91 -72 267
-101 391 -65 70 20 150 82 180 139 19 35 23 58 23 132 0 100 -10 128 -67 184
-32 32 -136 91 -159 91 -7 0 -56 16 -109 36 -124 45 -154 73 -154 145 0 47 4
55 37 85 33 31 43 34 97 34 52 0 63 -4 95 -31 20 -18 43 -45 51 -60 14 -29 16
-29 104 -29 l90 0 0 29 c0 81 -90 189 -186 224 -59 21 -162 29 -225 17z"/>
<path d="M4390 3463 c-2 -31 1 -987 3 -989 1 -1 40 -4 87 -5 l85 -4 3 218 2
217 161 0 160 0 -3 73 -3 72 -157 3 -158 3 0 134 0 135 215 0 215 0 0 75 0 75
-305 0 c-168 0 -305 -3 -305 -7z"/>
<path d="M9388 3343 l-3 -98 -40 -5 -40 -5 -3 -77 -3 -78 40 0 c26 0 41 -5 45
-16 3 -9 6 -104 6 -213 0 -232 10 -281 66 -331 51 -44 68 -49 191 -51 l108 -2
0 74 0 74 -55 3 c-128 6 -130 9 -130 267 l0 195 95 0 95 0 0 80 0 79 -92 3
-93 3 -3 98 -3 97 -89 0 -89 0 -3 -97z"/>
<path d="M5808 3235 c-27 -9 -66 -33 -89 -55 -23 -22 -44 -40 -46 -40 -1 0 -3
15 -3 34 0 63 -4 66 -96 66 l-84 0 -2 -217 c-1 -120 -2 -292 -2 -383 l-1 -165
88 -3 87 -3 0 225 c0 186 3 233 17 268 31 82 81 118 163 118 93 0 148 -45 169
-140 6 -25 11 -140 11 -256 l0 -211 78 -6 c42 -2 80 -3 83 -1 3 2 9 101 13
221 10 304 -7 393 -92 478 -73 73 -194 102 -294 70z"/>
<path d="M7745 3237 c-109 -33 -200 -119 -242 -229 -25 -66 -24 -247 2 -318
25 -71 74 -133 139 -175 127 -82 320 -70 413 27 15 15 31 28 36 28 5 0 8 -39
5 -93 -3 -83 -7 -97 -32 -130 -55 -73 -136 -99 -239 -77 -48 10 -63 18 -101
61 l-44 49 -86 0 -85 0 6 -32 c15 -79 84 -172 153 -208 93 -48 238 -58 354
-24 105 30 165 81 218 184 l33 65 3 438 3 438 -88 -3 -88 -3 -5 -53 -5 -52
-30 32 c-67 71 -217 106 -320 75z m235 -177 c25 -13 53 -41 76 -74 105 -159 7
-366 -173 -366 -136 0 -213 80 -213 222 0 109 38 182 115 222 44 23 146 21
195 -4z"/>
<path d="M5127 3233 c-4 -3 -7 -176 -7 -384 l0 -377 83 -4 c45 -2 85 -2 90 0
4 2 7 176 7 388 l0 384 -83 0 c-46 0 -87 -3 -90 -7z"/>
<path d="M7169 3143 c0 -54 -2 -227 -5 -384 -6 -329 -18 -297 104 -291 l72 4
0 384 0 384 -85 0 -85 0 -1 -97z"/>
</g>
</svg>
